# xmcd
#
# Track frame offsets: 
#        150
#        11879
#        26770
#        44887
#        64651
#        76983
#        93214
#        111231
#        122766
#        144006
#        162832
#        178510
#        196811
#
# Disc length: 3237 seconds
#
# Revision: 0
# Processed by: cddbd v1.5.2PL0 Copyright (c) Steve Scherf et al.
# Submitted via: ExactAudioCopy v0.90b4
#
DISCID=a80ca30d
DTITLE=My Advice to You - Don't Waste My Time
DYEAR=2001
DGENRE=Country
TTITLE0=Missing
TTITLE1=Another Dog
TTITLE2=Goin' Somewhere
TTITLE3=Emotional Climb
TTITLE4=Once Again
TTITLE5=School Sucks
TTITLE6=Just a Dream
TTITLE7=Untitled For Now
TTITLE8=Right Above Me
TTITLE9=The Mary Song
TTITLE10=Ain't No Rapper
TTITLE11=Yanked
TTITLE12=Don't Waste My Time
EXTD=
EXTT0=
EXTT1=
EXTT2=
EXTT3=
EXTT4=
EXTT5=
EXTT6=
EXTT7=
EXTT8=
EXTT9=
EXTT10=
EXTT11=
EXTT12=
PLAYORDER=
